HIERARCHY
ROOT hips
{
  OFFSET 0 10.6860622 2.3727825e-15
  CHANNELS 6 Xposition Yposition Zposition Yrotation Xrotation Zrotation
  JOINT leftUpperLeg
  {
    OFFSET 0.6642549969 -0.9402397400000004 0
    CHANNELS 3 Yrotation Xrotation Zrotation
    JOINT leftLowerLeg
    {
      OFFSET 0 -3.997221335632195 0
      CHANNELS 3 Yrotation Xrotation Zrotation
      JOINT leftFoot
      {
        OFFSET -0.13777839790000004 -4.6145792000000005 -0.22186036399999998
        CHANNELS 3 Yrotation Xrotation Zrotation
        JOINT leftToes
        {
          OFFSET -0.03777410834999995 -0.9130806927000008 0.85230013
          CHANNELS 3 Yrotation Xrotation Zrotation
          End Site
          {
            OFFSET -0.03777410834999995 -0.9130806927000008 0.85230013
          }
        }
      }
    }
  }
  JOINT rightUpperLeg
  {
    OFFSET -0.6642778626 -0.9402397400000004 0
    CHANNELS 3 Yrotation Xrotation Zrotation
    JOINT rightLowerLeg
    {
      OFFSET 0 -3.997221452859387 0
      CHANNELS 3 Yrotation Xrotation Zrotation
      JOINT rightFoot
      {
        OFFSET 0.1377926176 -4.6145792000000005 -0.22185782299999995
        CHANNELS 3 Yrotation Xrotation Zrotation
        JOINT rightToes
        {
          OFFSET 0.037780746850000047 -0.9130806927000008 0.85230167
          CHANNELS 3 Yrotation Xrotation Zrotation
          End Site
          {
            OFFSET 0.037780746850000047 -0.9130806927000008 0.85230167
          }
        }
      }
    }
  }
  JOINT spine
  {
    OFFSET 0 0.13988381660000015 0
    CHANNELS 3 Yrotation Xrotation Zrotation
    JOINT chest
    {
      OFFSET 0 0.6191039003973773 0
      CHANNELS 3 Yrotation Xrotation Zrotation
      JOINT upperChest
      {
        OFFSET 0 0.9855186130586943 0
        CHANNELS 3 Yrotation Xrotation Zrotation
        JOINT leftShoulder
        {
          OFFSET 0.1807663869 1.5087829790000005 0
          CHANNELS 3 Yrotation Xrotation Zrotation
          JOINT leftUpperArm
          {
            OFFSET 0.5985063006419806 0 0
            CHANNELS 3 Yrotation Xrotation Zrotation
            JOINT leftLowerArm
            {
              OFFSET 2.2993332369501065 0 0
              CHANNELS 3 Yrotation Xrotation Zrotation
              JOINT leftHand
              {
                OFFSET 2.395047042602395 0 0
                CHANNELS 3 Yrotation Xrotation Zrotation
                JOINT leftIndexProximal
                {
                  OFFSET 0.5766295810000004 0.04556643899499946 0.17265095988184
                  CHANNELS 3 Yrotation Xrotation Zrotation
                  JOINT leftIndexIntermediate
                  {
                    OFFSET 0.2957229000000008 -0.019352197700001517 -0.007932640616999987
                    CHANNELS 3 Yrotation Xrotation Zrotation
                    JOINT leftIndexDistal
                    {
                      OFFSET 0.19008243099999922 -0.012484908149998475 -0.002786250786000012
                      CHANNELS 3 Yrotation Xrotation Zrotation
                      End Site
                      {
                        OFFSET 0.19008243099999922 -0.012484908149998475 -0.002786250786000012
                      }
                    }
                  }
                }
                JOINT leftMiddleProximal
                {
                  OFFSET 0.5834975091000001 0.0524350405149987 0.02204081888183999
                  CHANNELS 3 Yrotation Xrotation Zrotation
                  JOINT leftMiddleIntermediate
                  {
                    OFFSET 0.33880573540000003 -0.019871473270000717 -0.00000971183179999946
                    CHANNELS 3 Yrotation Xrotation Zrotation
                    JOINT leftMiddleDistal
                    {
                      OFFSET 0.20676022730000088 -0.012221336379999448 0.0001471936708000235
                      CHANNELS 3 Yrotation Xrotation Zrotation
                      End Site
                      {
                        OFFSET 0.20676022730000088 -0.012221336379999448 0.0001471936708000235
                      }
                    }
                  }
                }
                JOINT leftLittleProximal
                {
                  OFFSET 0.5344154683999995 -0.012880921405001189 -0.24414037221816004
                  CHANNELS 3 Yrotation Xrotation Zrotation
                  JOINT leftLittleIntermediate
                  {
                    OFFSET 0.21758961730000093 -0.011650919939999227 0.011893592810000034
                    CHANNELS 3 Yrotation Xrotation Zrotation
                    JOINT leftLittleDistal
                    {
                      OFFSET 0.1475273964999999 -0.008152365682999818 0.006001092492999946
                      CHANNELS 3 Yrotation Xrotation Zrotation
                      End Site
                      {
                        OFFSET 0.1475273964999999 -0.008152365682999818 0.006001092492999946
                      }
                    }
                  }
                }
                JOINT leftRingProximal
                {
                  OFFSET 0.5799399463000003 0.026911854694997794 -0.12150566991816003
                  CHANNELS 3 Yrotation Xrotation Zrotation
                  JOINT leftRingIntermediate
                  {
                    OFFSET 0.26167887460000006 -0.013480186499999602 0.010996293000000053
                    CHANNELS 3 Yrotation Xrotation Zrotation
                    JOINT leftRingDistal
                    {
                      OFFSET 0.17667108799999987 -0.008990287899999228 0.0055541023999999065
                      CHANNELS 3 Yrotation Xrotation Zrotation
                      End Site
                      {
                        OFFSET 0.17667108799999987 -0.008990287899999228 0.0055541023999999065
                      }
                    }
                  }
                }
                JOINT leftThumbProximal
                {
                  OFFSET 0.11018806699999972 -0.09448718900500053 0.17047963138184
                  CHANNELS 3 Yrotation Xrotation Zrotation
                  JOINT leftThumbIntermediate
                  {
                    OFFSET 0.31062601459999983 -0.08126270900000132 0.15443142000000007
                    CHANNELS 3 Yrotation Xrotation Zrotation
                    JOINT leftThumbDistal
                    {
                      OFFSET 0.21627175790000086 -0.08833193599999878 0.018771167799999988
                      CHANNELS 3 Yrotation Xrotation Zrotation
                      End Site
                      {
                        OFFSET 0.21627175790000086 -0.08833193599999878 0.018771167799999988
                      }
                    }
                  }
                }
              }
            }
          }
        }
        JOINT neck
        {
          OFFSET 0 1.5463305265074576 0
          CHANNELS 3 Yrotation Xrotation Zrotation
          JOINT head
          {
            OFFSET 0 0.8456443600000344 0
            CHANNELS 3 Yrotation Xrotation Zrotation
            JOINT leftEye
            {
              OFFSET 0.30408573140000006 0.5104519199999995 0.1276382305
              CHANNELS 3 Yrotation Xrotation Zrotation
              End Site
              {
                OFFSET 0.30408573140000006 0.5104519199999995 0.1276382305
              }
            }
            JOINT rightEye
            {
              OFFSET -0.30409491089999996 0.5104519199999995 0.1276379445
              CHANNELS 3 Yrotation Xrotation Zrotation
              End Site
              {
                OFFSET -0.30409491089999996 0.5104519199999995 0.1276379445
              }
            }
            JOINT jaw
            {
              OFFSET -3.155239131000001e-7 -0.11984121820000082 0.60178107
              CHANNELS 3 Yrotation Xrotation Zrotation
              End Site
              {
                OFFSET -3.155239131000001e-7 -0.11984121820000082 0.60178107
              }
            }
          }
        }
        JOINT rightShoulder
        {
          OFFSET -0.1807303465 1.5087829790000005 0
          CHANNELS 3 Yrotation Xrotation Zrotation
          JOINT rightUpperArm
          {
            OFFSET -0.5985063796536958 0 0
            CHANNELS 3 Yrotation Xrotation Zrotation
            JOINT rightLowerArm
            {
              OFFSET -2.2993322059002854 0 0
              CHANNELS 3 Yrotation Xrotation Zrotation
              JOINT rightHand
              {
                OFFSET -2.395045314457259 0 0
                CHANNELS 3 Yrotation Xrotation Zrotation
                JOINT rightIndexProximal
                {
                  OFFSET -0.5764487688300002 0.0441371204405987 0.17361932004999997
                  CHANNELS 3 Yrotation Xrotation Zrotation
                  JOINT rightIndexIntermediate
                  {
                    OFFSET -0.29573011380000047 -0.01934826376999843 -0.007698921482999974
                    CHANNELS 3 Yrotation Xrotation Zrotation
                    JOINT rightIndexDistal
                    {
                      OFFSET -0.19008373999999884 -0.012503266380000655 -0.0026365778999999897
                      CHANNELS 3 Yrotation Xrotation Zrotation
                      End Site
                      {
                        OFFSET -0.19008373999999884 -0.012503266380000655 -0.0026365778999999897
                      }
                    }
                  }
                }
                JOINT rightMiddleProximal
                {
                  OFFSET -0.5834852037300005 0.05211639405060153 0.02307162440000001
                  CHANNELS 3 Yrotation Xrotation Zrotation
                  JOINT rightMiddleIntermediate
                  {
                    OFFSET -0.33880114510000003 -0.019952774050000954 0.0002455003561999819
                    CHANNELS 3 Yrotation Xrotation Zrotation
                    JOINT rightMiddleDistal
                    {
                      OFFSET -0.20675694929999955 -0.012273788999999091 0.00030209124000002766
                      CHANNELS 3 Yrotation Xrotation Zrotation
                      End Site
                      {
                        OFFSET -0.20675694929999955 -0.012273788999999091 0.00030209124000002766
                      }
                    }
                  }
                }
                JOINT rightLittleProximal
                {
                  OFFSET -0.5346811737299992 -0.011214256288399227 -0.24363941305000003
                  CHANNELS 3 Yrotation Xrotation Zrotation
                  JOINT rightLittleIntermediate
                  {
                    OFFSET -0.21757715980000092 -0.011771559690000988 0.01201554387
                    CHANNELS 3 Yrotation Xrotation Zrotation
                    JOINT rightLittleDistal
                    {
                      OFFSET -0.1475201849000004 -0.00822055339600003 0.006082065407000015
                      CHANNELS 3 Yrotation Xrotation Zrotation
                      End Site
                      {
                        OFFSET -0.1475201849000004 -0.00822055339600003 0.006082065407000015
                      }
                    }
                  }
                }
                JOINT rightRingProximal
                {
                  OFFSET -0.5800810755299999 0.027657985680600072 -0.12066365025000003
                  CHANNELS 3 Yrotation Xrotation Zrotation
                  JOINT rightRingIntermediate
                  {
                    OFFSET -0.26166445029999974 -0.013623118409999302 0.011164098990000045
                    CHANNELS 3 Yrotation Xrotation Zrotation
                    JOINT rightRingDistal
                    {
                      OFFSET -0.17666387530000027 -0.009072900100000503 0.005668185599999959
                      CHANNELS 3 Yrotation Xrotation Zrotation
                      End Site
                      {
                        OFFSET -0.17666387530000027 -0.009072900100000503 0.005668185599999959
                      }
                    }
                  }
                }
                JOINT rightThumbProximal
                {
                  OFFSET -0.10997596379000074 -0.09577489355940072 0.16989765924999997
                  CHANNELS 3 Yrotation Xrotation Zrotation
                  JOINT rightThumbIntermediate
                  {
                    OFFSET -0.31036620999999986 -0.08229339117999834 0.15440884469999996
                    CHANNELS 3 Yrotation Xrotation Zrotation
                    JOINT rightThumbDistal
                    {
                      OFFSET -0.21631306399999906 -0.08825326400000111 0.018656797720000014
                      CHANNELS 3 Yrotation Xrotation Zrotation
                      End Site
                      {
                        OFFSET -0.21631306399999906 -0.08825326400000111 0.018656797720000014
                      }
                    }
                  }
                }
              }
            }
          }
        }
      }
    }
  }
}
MOTION
Frames: 8
Frame Time: 0.03333333333333333
0 11.682712981546562 0 0 0 0 0 0 -5.826343164929014 -0.3712483961610101 -3.6333298826370974 5.838118207697276 0 0 0 0 0 0 0 0 5.826343164929014 0.3712483961610101 -3.6333298826370974 -5.838118207697276 0 0 0 0 0 0 0 -4.610651315171937 0 0 3.0831277533083026 0 0 0 0 0 1.5275236235667615 0 0 0 0 0 0 0 0 0 0 0 0 0 0 0 0 0 0 0 0 0 0 0 0 0 0 0 0 0 0 0 0 0 0 0 0 0 0 0 0 0 0 0 0 0 0 0 0 0 0 0 0 0 0 0 0 1.5275236235667615 0 0 0 0 0 0 0 0 0 0 0 0 0 0 1.5275236235667615 0 0 0 0 0 0 0 0 0 0 0 0 0 0 0 0 0 0 0 0 0 0 0 0 0 0 0 0 0 0 0 0 0 0 0 0 0 0 0 0 0 0 0 0 0 0 0 0 0 0 0 0 0 0 0
0 -8.462476217525241 -2.148467517368393 0 3.99974819824721 0 -40.12028726610574 -43.18627658997083 46.940988736400776 174.4666127662085 43.37940420771209 171.97136525365764 0.000002559263633402947 66.9996088288033 0.000001355807921723583 0 0 0 40.11796681844399 -43.18659040385774 -46.94408396397677 -174.4666127662085 43.37940420771209 -171.97136525365764 0.000002559263633402947 66.9996088288033 0.000001355807921723583 0 0 0 0 58.38741202503105 0 0 19.08011714863068 0 0 0 0 5.971239314269539 -8.482505079686893 0.1581103585277281 -123.25160525521069 -72.01411143211143 34.21664322417865 -11.002160721425803 -20.002444714848604 0.00013302428893734652 0 14.99817556871629 0 0 0 0 0 0 0 0 0 0 0 0 0 0 0 0 0 0 0 0 0 0 0 0 0 0 0 0 0 0 0 0 0 0 0 0 0 0 0 0 0 0 0 0 0 0 0 -25.47276186615584 0 0 -12.00128013587278 0 0 0 0 0 0 0 0 0 0 -5.974452315311299 -8.482694987344866 -0.16141283518465216 123.23355235319777 -72.01319348621551 -34.205470895435994 16.998737714344628 20.000178730025073 -0.00185379975775263 0 -29.000625849948385 0 0 0 0 0 0 0 0 0 0 0 0 0 0 0 0 0 0 0 0 0 0 0 0 0 0 0 0 0 0 0 0 0 0 0 0 0 0 0 0 0 0 0 0 0 0
0 -8.462476217525241 -2.148467517368393 0 3.99974819824721 0 -40.12028726610574 -43.18627658997083 46.940988736400776 174.4666127662085 43.37940420771209 171.97136525365764 0.000002559263633402947 66.9996088288033 0.000001355807921723583 0 0 0 40.11796681844399 -43.18659040385774 -46.94408396397677 -174.4666127662085 43.37940420771209 -171.97136525365764 0.000002559263633402947 66.9996088288033 0.000001355807921723583 0 0 0 0 58.619708562039705 0 0 19.080118955439723 0 0 0 0 5.971239314269539 -8.482505079686893 0.1581103585277281 -124.44431414412888 -71.75638739800773 35.4541247773171 -11.146052555181264 -19.724218520225094 0.015225299203300345 0 14.99817556871629 0 0 0 0 0 0 0 0 0 0 0 0 0 0 0 0 0 0 0 0 0 0 0 0 0 0 0 0 0 0 0 0 0 0 0 0 0 0 0 0 0 0 0 0 0 0 0 -25.47276186615584 0 -0.49430265653309907 -12.29737308167875 0.15894974434822795 0 0 0 0 0 0 0 0 0 -5.974452315311299 -8.482694987344866 -0.16141283518465216 124.42536431184912 -71.75568924602979 -35.44239336050384 16.998737714344628 20.000178730025073 -0.00185379975775263 0.10095352757231087 -28.152123813299088 -0.15001737579841976 0 0 0 0 0 0 0 0 0 0 0 0 0 0 0 0 0 0 0 0 0 0 0 0 0 0 0 0 0 0 0 0 0 0 0 0 0 0 0 0 0 0 0 0 0
0 -8.462476217525241 -2.148467517368393 0 3.99974819824721 0 -40.12029084775866 -43.186271906193696 46.940991934255386 174.4666127662085 43.37940420771209 171.97136525365764 0.000002559263633402947 66.9996088288033 0.000001355807921723583 0 0 0 40.11796681844399 -43.18659040385774 -46.94408396397677 -174.4666127662085 43.37940420771209 -171.97136525365764 0.000002559263633402947 66.9996088288033 0.000001355807921723583 0 0 0 0 58.85203441294137 0 0 19.08011714863068 0 0 0 0 5.971239314269539 -8.482505079686893 0.1581103585277281 -125.60432765493303 -71.49064076506473 36.65900571518218 -11.28966256433561 -19.4458801128248 0.029555979128381565 0 14.998177336484256 0 0 0 0 0 0 0 0 0 0 0 0 0 0 0 0 0 0 0 0 0 0 0 0 0 0 0 0 0 0 0 0 0 0 0 0 0 0 0 0 0 0 0 0 0 0 0 -25.47276186615584 0 -0.9905169298872168 -12.59241249716092 0.32085998734760046 0 0 0 0 0 0 0 0 0 -5.974453173839486 -8.482694987344866 -0.1614128621600716 125.58428567102133 -71.49018895229474 -36.64650732281157 16.998737714344628 20.000178730025073 -0.00185379975775263 0.19885161883448865 -27.30138491337029 -0.2975335088619242 0 0 0 0 0 0 0 0 0 0 0 0 0 0 0 0 0 0 0 0 0 0 0 0 0 0 0 0 0 0 0 0 0 0 0 0 0 0 0 0 0 0 0 0 0
0 -8.462476217525241 -2.148467517368393 0 3.99974819824721 0 -40.12028782955871 -43.186271906193696 46.940991934255386 174.46661587921676 43.37939011170496 171.97136722241854 0.000002559263633402947 66.9996088288033 0.000001355807921723583 0 0 0 40.11796681844399 -43.18659040385774 -46.94408396397677 -174.46661587921676 43.37939011170496 -171.97136722241854 0.000002559263633402947 66.9996088288033 0.000001355807921723583 0 0 0 0 59.08440067664732 0 0 19.080118955439723 0 0 0 0 5.971239314269539 -8.482505079686893 0.1581103585277281 -126.73107437728 -71.21720554690258 37.83066856645721 -11.432999914530624 -19.1674271367408 0.04312681246715351 0 14.99817556871629 0 0 0 0 0 0 0 0 0 0 0 0 0 0 0 0 0 0 0 0 0 0 0 0 0 0 0 0 0 0 0 0 0 0 0 0 0 0 0 0 0 0 0 0 0 0 0 -25.47276186615584 0 -1.4886474430438597 -12.886352699068802 0.4857353796078433 0 0 0 0 0 0 0 0 0 -5.974453173839486 -8.482695850561708 -0.1614128621600716 126.70989169995858 -71.21699341813304 -37.81734520187497 16.998737714344628 20.000178730025073 -0.00185379975775263 0.29377886121114605 -26.448500537955397 -0.4426434884285971 0 0 0 0 0 0 0 0 0 0 0 0 0 0 0 0 0 0 0 0 0 0 0 0 0 0 0 0 0 0 0 0 0 0 0 0 0 0 0 0 0 0 0 0 0
0 -8.462476217525241 -2.148467517368393 0 3.999746914459894 0 -40.12028726610574 -43.18627658997083 46.940988736400776 174.4666127662085 43.37940420771209 171.97136525365764 0.000002559263633402947 66.9996088288033 0.000001355807921723583 0 0 0 40.11796681844399 -43.18659040385774 -46.94408396397677 -174.4666127662085 43.37940420771209 -171.97136525365764 0.000002559263633402947 66.9996088288033 0.000001355807921723583 0 0 0 0 59.31681203976027 0 0 19.080115341821656 0 0 0 0 5.971239314269539 -8.482505079686893 0.1581103585277281 -127.82508831463994 -70.93637405664828 38.969643045716616 -11.576060808223183 -18.88886624868427 0.055942606317217265 0 14.99817556871629 0 0 0 0 0 0 0 0 0 0 0 0 0 0 0 0 0 0 0 0 0 0 0 0 0 0 0 0 0 0 0 0 0 0 0 0 0 0 0 0 0 0 0 0 0 0 0 -25.472763757567574 0 -1.9886979831759235 -13.179157270025984 0.6535804328704988 0 0 0 0 0 0 0 0 0 -5.974452315311299 -8.482694987344866 -0.16141283518465216 127.8033864540301 -70.93642633637218 -38.956152239558605 16.99873665186297 20.000176912889145 -0.00185379975775263 0.3858179159757542 -25.59357224765631 -0.5854400832241927 0 0 0 0 0 0 0 0 0 0 0 0 0 0 0 0 0 0 0 0 0 0 0 0 0 0 0 0 0 0 0 0 0 0 0 0 0 0 0 0 0 0 0 0 0
0 -8.462476217525241 -2.148467517368393 0 3.99974819824721 0 -40.12028726610574 -43.18627658997083 46.940988736400776 174.4666127662085 43.37940420771209 171.97136525365764 0.000002559263633402947 66.9996088288033 0.000001355807921723583 0 0 0 40.11796681844399 -43.18659040385774 -46.94408396397677 -174.4666127662085 43.37940420771209 -171.97136525365764 0.000002559263633402947 66.9996088288033 0.000001355807921723583 0 0 0 0 59.54925308029984 0 0 19.08011714863068 0 0 0 0 5.971239314269539 -8.482505079686893 0.1581103585277281 -128.88740380949315 -70.64849137651484 40.07699749043433 -11.71886057174648 -18.610204034409687 0.06800592119290891 0 14.998177336484256 0 0 0 0 0 0 0 0 0 0 0 0 0 0 0 0 0 0 0 0 0 0 0 0 0 0 0 0 0 0 0 0 0 0 0 0 0 0 0 0 0 0 0 0 0 0 0 -25.47276186615584 0 -2.4906737480490158 -13.470775402207751 0.8244016006962327 0 0 0 0 0 0 0 0 0 -5.974452315311299 -8.482694124128027 -0.16141283518465216 128.86470043462563 -70.64881087162566 -40.062823892319685 16.998737714344628 20.000178730025073 -0.00185379975775263 0.4750462485821537 -24.736707831567696 -0.7260106965926015 0 0 0 0 0 0 0 0 0 0 0 0 0 0 0 0 0 0 0 0 0 0 0 0 0 0 0 0 0 0 0 0 0 0 0 0 0 0 0 0 0 0 0 0 0
0 -8.462476217525241 -2.148467517368393 0 3.99974819824721 0 -40.12028726610574 -43.18627658997083 46.940988736400776 174.4666127662085 43.37940420771209 171.97136525365764 0.000002559263633402947 66.9996088288033 0.000001355807921723583 0 0 0 40.117965027547044 -43.18659508765932 -46.944080766290156 -174.4666127662085 43.37940420771209 -171.97136525365764 0.000002559263633402947 66.9996088288033 0.000001355807921723583 0 0 0 0 59.78172828162428 0 0 19.08011714863068 0 0 0 0 5.971239314269539 -8.482505079686893 0.1581103585277281 -129.91843857803227 -70.35382860015979 41.15313269826434 -11.86139977630335 -18.331445212083327 0.07932026470379623 0 14.998177336484256 0 0 0 0 0 0 0 0 0 0 0 0 0 0 0 0 0 0 0 0 0 0 0 0 0 0 0 0 0 0 0 0 0 0 0 0 0 0 0 0 0 0 0 0 0 0 0 -25.472763757567574 0 -2.994577129410623 -13.761162899176762 0.9982014287422067 0 0 0 0 0 0 0 0 0 -5.974452315311299 -8.482694987344866 -0.16141283518465216 129.89509955277384 -70.35441774973467 -41.13866816573757 16.998737714344628 20.000178730025073 -0.00185379975775263 0.5615371359784429 -23.877989551611336 -0.8644371090344819 0 0 0 0 0 0 0 0 0 0 0 0 0 0 0 0 0 0 0 0 0 0 0 0 0 0 0 0 0 0 0 0 0 0 0 0 0 0 0 0 0 0 0 0 0
